{"title":"The Last Chapter 1 and 2 Mini-Serie 6DVDrip English Klam","uid":7828396,"size":9298978373,"categoryP":"video","categoryS":"movies","magnet":"?xt=urn:btih:aceba4c1bffe30b3eac72e08decf40ab9a8c5995&amp;dn=The+Last+Chapter+1+and+2+Mini-Serie+6DVDrip+English+Klam&amp;tr=udp%3A%2F%2Ftracker.openbittorrent.com%3A80&amp;tr=udp%3A%2F%2Fopen.demonii.com%3A1337&amp;tr=udp%3A%2F%2Ftracker.coppersurfer.tk%3A6969&amp;tr=udp%3A%2F%2Fexodus.desync.com%3A6969","seeders":1,"leechers":1,"uploader":"Klambake","files":-1,"time":1352987162,"description":"With: Roy Dupuis, Michael Ironside and Lorne Brass\n\nBob Durelle (Michael Ironside) is de leider van de motorbende The Devil Riders in Toronto. Hij wil zijn maten overtuigen om de hele bende aan te sluiten bij de beruchte The Triple Sixers, de grootste motorbende van Canada. Zij zoeken immers naar een manier om hun illegale operaties uit te breiden. Als Durelle de leiding weet over te nemen van alle tien Triple Sixers-fracties in Ontario en een distributiedeal weet te sluiten met een Braziliaanse drugsbaron, wordt hij met open armen ontvangen in de Triple Sixers-gemeenschap. Zijn mede-Devil Riders, onder leiding van Ross Desbiens (Roy Dupuis), zijn het hier niet mee eens en besluiten zich af te scheiden van Durelle. Dit leidt tot gewelddadige confrontaties.\n\n6 Parts,\nThis show is about an outlaw biker group, The Triple Sixers. Characterized as one of the largest outlaw biker gangs in the world...\n &lt;a href=&quot;\nhttp://www.imdb.com/title/tt0299283&quot; rel=&quot;nofollow&quot; target=&quot;_NEW&quot;&gt;\nhttp://www.imdb.com/title/tt0299283&lt;/a&gt; &lt;a href=&quot;\nhttp://www.imdb.com/title/tt0337549&quot; rel=&quot;nofollow&quot; target=&quot;_NEW&quot;&gt;\nhttp://www.imdb.com/title/tt0337549&lt;/a&gt;\n\n------------------------ Dutch Friends ------------------------\n---------------------------------------------------------------\n- Bezoek ook eens mijn vrienden op: &lt;a href=&quot; http://www.Film-Test.nl&quot; rel=&quot;nofollow&quot; target=&quot;_NEW&quot;&gt; http://www.Film-Test.nl&lt;/a&gt; --\n----- voor mijn Nederlandse Sync. ondertitels ---- en meer ----\n------- http://www.Film-Test.nl ---- voor Films en meer -------\n---------------------------------------------------------------\n\nGeneral:\n\nComplete name                    : The Last ChapterThe Last Chapter 01.avi\nFormat                           : AVI\nFormat/Info                      : Audio Video Interleave\nFile size                        : 1.67 GiB\nDuration                         : 1h 29mn\nOverall bit rate                 : 2 688 Kbps\n\nVideo:\n\nFormat                           : MPEG-4 Visual\nFormat profile                   : Simple@L3\nFormat settings, BVOP            : No\nFormat settings, QPel            : No\nFormat settings, GMC             : No warppoints\nFormat settings, Matrix          : Default (H.263)\nCodec ID                         : XVID\nCodec ID/Hint                    : XviD\nDuration                         : 1h 29mn\nBit rate                         : 2 229 Kbps\nWidth                            : 704 pixels\nHeight                           : 396 pixels\nDisplay aspect ratio             : 16:9\nFrame rate                       : 25.000 fps\nColor space                      : YUV\nChroma subsampling               : 4:2:0\nBit depth                        : 8 bits\nScan type                        : Progressive\nCompression mode                 : Lossy\nBits/(Pixel*Frame)               : 0.320\nStream size                      : 1.39 GiB (83%)\nWriting library                  : XviD 1.1.2 (UTC 2006-11-01)\n\nAudio:\n\nFormat                           : AC-3\nFormat/Info                      : Audio Coding 3\nMode extension                   : CM (complete main)\nCodec ID                         : 2000\nDuration                         : 1h 29mn\nBit rate mode                    : Constant\nBit rate                         : 448 Kbps\nChannel(s)                       : 6 channels\nChannel positions                : Front: L C R, Side: L R, LFE\nSampling rate                    : 48.0 KHz\nBit depth                        : 16 bits\nCompression mode                 : Lossy\nStream size                      : 286 MiB (17%)\nAlignment                        : Aligned on interleaves\nInterleave, duration             : 32 ms (0.80 video frame)\nInterleave, preload duration     : 288 ms","torrent":{"xt":"urn:btih:aceba4c1bffe30b3eac72e08decf40ab9a8c5995","amp;dn":"The+Last+Chapter+1+and+2+Mini-Serie+6DVDrip+English+Klam","amp;tr":["udp%3A%2F%2Ftracker.openbittorrent.com%3A80","udp%3A%2F%2Fopen.demonii.com%3A1337","udp%3A%2F%2Ftracker.coppersurfer.tk%3A6969","udp%3A%2F%2Fexodus.desync.com%3A6969"],"infoHash":"aceba4c1bffe30b3eac72e08decf40ab9a8c5995","infoHashBuffer":{"type":"Buffer","data":[172,235,164,193,191,254,48,179,234,199,46,8,222,207,64,171,154,140,89,149]},"announce":[],"urlList":[]}}